<svg width="362" height="189" viewBox="0 0 362 189" fill="none" xmlns="http://www.w3.org/2000/svg">
<path d="M309.664 3.375H160.661C148.353 3.375 138.375 13.3527 138.375 25.6607V111.375H296.83C296.83 111.375 304.115 107.946 305.936 94.2321C307.758 80.5179 305.936 32.5179 305.936 32.5179L315.692 13.1631C317.954 8.67375 314.691 3.375 309.664 3.375Z" fill="#E6FFDA" stroke="black" stroke-width="3.375"/>
<path d="M70.875 40.5V50.625V158.625C70.875 166.081 76.9192 172.125 84.375 172.125H258.188C265.643 172.125 271.688 166.081 271.688 158.625V106.312V40.5C271.688 33.0442 265.643 27 258.188 27H148.5V20.25C148.5 16.5221 145.478 13.5 141.75 13.5H97.875C94.1471 13.5 91.125 16.5221 91.125 20.25V27H84.375C76.9192 27 70.875 33.0442 70.875 40.5Z" fill="#25D366" stroke="black" stroke-width="3.375"/>
<mask id="path-3-inside-1_733_2749" fill="white">
<path d="M273.375 101.25C293.228 101.25 309.742 114.344 313.205 131.625H332.438C348.281 131.625 361.125 144.469 361.125 160.312C361.125 176.156 348.281 189 332.438 189H224.438C208.594 189 195.75 176.156 195.75 160.312C195.75 144.469 208.594 131.625 224.438 131.625H233.545C237.008 114.344 253.522 101.25 273.375 101.25Z"/>
</mask>
<path d="M273.375 101.25C293.228 101.25 309.742 114.344 313.205 131.625H332.438C348.281 131.625 361.125 144.469 361.125 160.312C361.125 176.156 348.281 189 332.438 189H224.438C208.594 189 195.75 176.156 195.75 160.312C195.75 144.469 208.594 131.625 224.438 131.625H233.545C237.008 114.344 253.522 101.25 273.375 101.25Z" fill="white"/>
<path d="M313.205 131.625L309.896 132.288L310.439 135H313.205V131.625ZM332.438 189V192.375V189ZM224.438 131.625V128.25V131.625ZM233.545 131.625V135H236.311L236.854 132.288L233.545 131.625ZM273.375 101.25V104.625C291.793 104.625 306.782 116.749 309.896 132.288L313.205 131.625L316.514 130.962C312.702 111.94 294.662 97.875 273.375 97.875V101.25ZM313.205 131.625V135H332.438V131.625V128.25H313.205V131.625ZM332.438 131.625V135C346.417 135 357.75 146.333 357.75 160.312H361.125H364.5C364.5 142.605 350.145 128.25 332.438 128.25V131.625ZM361.125 160.312H357.75C357.75 174.292 346.417 185.625 332.438 185.625V189V192.375C350.145 192.375 364.5 178.02 364.5 160.312H361.125ZM332.438 189V185.625H224.438V189V192.375H332.438V189ZM224.438 189V185.625C210.458 185.625 199.125 174.292 199.125 160.312H195.75H192.375C192.375 178.02 206.73 192.375 224.438 192.375V189ZM195.75 160.312H199.125C199.125 146.333 210.458 135 224.438 135V131.625V128.25C206.73 128.25 192.375 142.605 192.375 160.312H195.75ZM224.438 131.625V135H233.545V131.625V128.25H224.438V131.625ZM233.545 131.625L236.854 132.288C239.968 116.749 254.957 104.625 273.375 104.625V101.25V97.875C252.088 97.875 234.048 111.94 230.236 130.962L233.545 131.625Z" fill="black" mask="url(#path-3-inside-1_733_2749)"/>
<g clip-path="url(#clip0_733_2749)">
<mask id="path-5-inside-2_733_2749" fill="white">
<path d="M87.75 72.5625C87.75 54.8549 73.3951 40.5 55.6875 40.5C37.9799 40.5 23.625 54.8549 23.625 72.5625V94.5H87.75V72.5625Z"/>
</mask>
<path d="M87.75 72.5625C87.75 54.8549 73.3951 40.5 55.6875 40.5C37.9799 40.5 23.625 54.8549 23.625 72.5625V94.5H87.75V72.5625Z" fill="#FCF5EB"/>
<mask id="path-7-inside-3_733_2749" fill="white">
<path d="M64.125 69.1875C64.125 64.5276 60.3474 60.75 55.6875 60.75C51.0276 60.75 47.25 64.5276 47.25 69.1875V94.5H64.125V69.1875Z"/>
</mask>
<path d="M67.5 69.1875C67.5 62.6636 62.2114 57.375 55.6875 57.375C49.1636 57.375 43.875 62.6636 43.875 69.1875H50.625C50.625 66.3916 52.8916 64.125 55.6875 64.125C58.4834 64.125 60.75 66.3916 60.75 69.1875H67.5ZM47.25 94.5H64.125H47.25ZM67.5 94.5V69.1875C67.5 62.6636 62.2114 57.375 55.6875 57.375V64.125C58.4834 64.125 60.75 66.3916 60.75 69.1875V94.5H67.5ZM55.6875 57.375C49.1636 57.375 43.875 62.6636 43.875 69.1875V94.5H50.625V69.1875C50.625 66.3916 52.8916 64.125 55.6875 64.125V57.375Z" fill="black" mask="url(#path-7-inside-3_733_2749)"/>
<path d="M47.25 94.5H25.3125" stroke="black" stroke-width="6.75"/>
</g>
<path d="M91.125 72.5625C91.125 52.9909 75.2591 37.125 55.6875 37.125C36.1159 37.125 20.25 52.9909 20.25 72.5625H27C27 56.7188 39.8438 43.875 55.6875 43.875C71.5312 43.875 84.375 56.7188 84.375 72.5625H91.125ZM23.625 94.5H87.75H23.625ZM91.125 94.5V72.5625C91.125 52.9909 75.2591 37.125 55.6875 37.125V43.875C71.5312 43.875 84.375 56.7188 84.375 72.5625V94.5H91.125ZM55.6875 37.125C36.1159 37.125 20.25 52.9909 20.25 72.5625V94.5H27V72.5625C27 56.7188 39.8438 43.875 55.6875 43.875V37.125Z" fill="black" mask="url(#path-5-inside-2_733_2749)"/>
<rect x="1.6875" y="92.8125" width="111.375" height="94.5" rx="32.0625" fill="#FCF5EB"/>
<rect x="1.6875" y="92.8125" width="111.375" height="94.5" rx="32.0625" stroke="black" stroke-width="3.375"/>
<mask id="path-11-inside-4_733_2749" fill="white">
<path d="M55.8428 118.125C62.6207 118.125 68.1161 123.62 68.1162 130.397C68.1162 134.799 65.7971 138.656 62.3164 140.822L74.25 165.683H40.5L50.2451 141.318C46.2828 139.283 43.5703 135.158 43.5703 130.397C43.5705 123.62 49.0649 118.125 55.8428 118.125Z"/>
</mask>
<path d="M55.8428 118.125V114.75H55.8427L55.8428 118.125ZM68.1162 130.397H71.4912V130.397L68.1162 130.397ZM62.3164 140.822L60.5332 137.957L57.9645 139.555L59.2738 142.283L62.3164 140.822ZM74.25 165.683V169.058H79.6138L77.2926 164.222L74.25 165.683ZM40.5 165.683L37.3664 164.429L35.5151 169.058H40.5V165.683ZM50.2451 141.318L53.3788 142.572L54.5195 139.72L51.7871 138.316L50.2451 141.318ZM43.5703 130.397L40.1953 130.397V130.397H43.5703ZM55.8428 118.125V121.5C60.757 121.5 64.7411 125.484 64.7412 130.398L68.1162 130.397L71.4912 130.397C71.491 121.755 64.4844 114.75 55.8428 114.75V118.125ZM68.1162 130.397H64.7412C64.7412 133.583 63.0673 136.38 60.5332 137.957L62.3164 140.822L64.0996 143.688C68.5268 140.933 71.4912 136.015 71.4912 130.397H68.1162ZM62.3164 140.822L59.2738 142.283L71.2074 167.143L74.25 165.683L77.2926 164.222L65.359 139.362L62.3164 140.822ZM74.25 165.683V162.308H40.5V165.683V169.058H74.25V165.683ZM40.5 165.683L43.6336 166.936L53.3788 142.572L50.2451 141.318L47.1115 140.065L37.3664 164.429L40.5 165.683ZM50.2451 141.318L51.7871 138.316C48.9045 136.836 46.9453 133.843 46.9453 130.397H43.5703H40.1953C40.1953 136.474 43.6611 141.731 48.7031 144.321L50.2451 141.318ZM43.5703 130.397L46.9453 130.398C46.9454 125.484 50.9289 121.5 55.8428 121.5L55.8428 118.125L55.8427 114.75C47.201 114.75 40.1955 121.756 40.1953 130.397L43.5703 130.397Z" fill="black" mask="url(#path-11-inside-4_733_2749)"/>
<defs>
<clipPath id="clip0_733_2749">
<path d="M87.75 72.5625C87.75 54.8549 73.3951 40.5 55.6875 40.5C37.9799 40.5 23.625 54.8549 23.625 72.5625V94.5H87.75V72.5625Z" fill="white"/>
</clipPath>
</defs>
</svg>
